<svg xmlns="http://www.w3.org/2000/svg" width="275" height="248" viewBox="0 0 275 248">
<g>
<path d="M 139.85 236.39 C136.43,238.79 133.47,238.35 130.68,235.04 C129.31,233.41 128.04,231.71 127.85,231.27 C127.43,230.30 93.34,220.93 90.50,221.01 C89.40,221.04 87.63,221.72 86.56,222.53 C83.88,224.56 81.74,224.37 78.52,221.84 C76.17,219.99 75.85,219.14 76.29,215.91 C76.79,212.17 76.66,212.01 62.81,198.82 C50.65,187.25 48.38,185.50 45.48,185.47 C39.00,185.40 36.39,180.09 39.13,172.53 C39.30,172.04 39.46,171.64 39.57,171.24 C40.16,169.00 39.36,166.39 33.09,145.95 C32.87,145.22 32.64,144.47 32.40,143.69 C31.08,139.39 30.00,134.98 30.00,133.89 C30.00,132.57 28.97,131.54 26.96,130.84 C23.22,129.53 20.88,124.71 22.21,121.00 C22.70,119.62 24.52,117.60 26.26,116.50 C28.81,114.88 29.75,113.26 31.16,108.00 C35.79,90.80 38.15,82.57 38.91,81.11 C39.36,80.22 39.57,78.38 39.37,77.00 C37.84,66.44 37.85,65.30 39.48,63.66 C40.40,62.75 42.65,62.00 44.48,62.00 C47.41,62.00 49.08,60.72 57.80,51.75 C72.65,36.49 76.00,32.30 76.00,29.06 C76.00,27.51 76.63,25.72 77.39,25.09 C79.72,23.16 85.25,22.92 87.19,24.67 C88.33,25.70 89.73,26.01 91.22,25.56 C105.24,21.30 127.07,15.74 127.61,16.28 C129.48,18.14 125.04,20.09 108.79,24.54 L 90.62 29.52 L 89.78 32.78 C89.06,35.56 89.39,36.70 92.01,40.52 C93.71,42.98 95.41,45.03 95.80,45.07 C96.18,45.12 97.43,45.32 98.57,45.54 C100.04,45.82 102.61,44.04 107.57,39.30 C127.06,20.65 128.19,19.69 129.08,21.11 C129.71,22.12 126.90,25.56 118.77,33.72 C112.63,39.89 107.89,45.22 108.24,45.57 C108.59,45.92 113.29,44.56 118.69,42.55 C133.47,37.04 133.46,37.05 133.77,32.47 C134.21,25.90 134.87,24.01 136.51,24.64 C137.59,25.06 138.00,26.79 138.00,30.96 L 138.00 36.70 L 142.00 38.35 C144.20,39.26 147.91,40.72 150.25,41.59 C157.92,44.47 162.82,47.31 162.32,48.60 C161.84,49.86 159.47,49.14 144.21,43.09 C141.31,41.94 138.72,41.00 138.46,41.00 C138.21,41.00 138.00,43.62 138.00,46.83 C138.00,51.71 138.39,53.02 140.45,54.95 L 142.90 57.25 L 152.70 55.59 L 153.21 55.51 C164.70,53.56 166.55,53.24 167.54,54.02 C167.74,54.18 167.91,54.39 168.12,54.64 C168.74,55.39 169.89,56.00 170.68,56.00 C171.47,56.00 171.86,56.41 171.55,56.91 C171.24,57.42 171.55,58.03 172.24,58.28 C172.93,58.52 173.17,59.09 172.76,59.52 C172.35,59.96 171.11,59.51 170.01,58.51 C168.09,56.77 167.59,56.77 156.01,58.54 C148.96,59.62 144.00,60.84 144.00,61.49 C144.00,62.10 147.49,64.57 151.75,66.97 C156.01,69.37 161.38,72.61 163.68,74.17 C165.98,75.73 168.06,77.00 168.31,77.00 C168.96,77.00 179.79,83.58 181.57,85.06 C184.97,87.88 184.59,84.00 180.45,73.50 C178.06,67.45 176.09,61.71 176.06,60.74 C175.94,57.10 179.62,61.20 181.99,67.38 C188.72,84.84 188.45,84.34 191.42,85.14 C193.44,85.68 195.35,85.35 197.95,84.02 C204.90,80.48 204.82,80.22 193.75,70.97 C188.18,66.31 183.44,61.94 183.23,61.25 C182.18,57.92 187.51,60.87 197.29,69.03 L 208.08 78.04 L 212.61 75.39 C215.72,73.56 217.45,73.05 218.17,73.77 C219.23,74.83 218.15,76.13 213.03,79.94 L 210.55 81.78 L 212.98 96.40 C214.81,107.41 215.69,110.71 216.53,109.76 C217.15,109.07 218.69,102.88 219.97,96.00 C221.24,89.12 222.73,82.38 223.27,81.00 L 224.25 78.50 L 225.07 81.38 C225.65,83.39 225.00,88.60 222.95,98.59 C219.51,115.30 219.44,116.75 221.94,119.75 C223.43,121.53 224.86,122.00 228.79,122.00 C233.26,122.00 234.02,121.66 236.33,118.64 L 238.89 115.28 L 233.61 96.89 C229.24,81.68 228.57,78.35 229.74,77.66 C230.51,77.20 231.28,76.97 231.44,77.16 C231.60,77.35 233.84,84.70 236.43,93.50 C239.01,102.30 241.55,110.85 242.06,112.50 C242.58,114.15 244.29,116.23 245.86,117.12 C251.07,120.08 250.62,127.88 245.10,130.64 C243.29,131.54 242.10,133.77 240.28,139.67 C238.95,143.98 236.12,152.99 234.00,159.71 C230.84,169.70 230.23,172.88 230.67,177.21 C231.15,181.91 230.93,182.75 228.74,184.80 L 226.27 187.09 L 230.00 201.80 C232.06,209.88 234.04,217.76 234.40,219.30 C234.81,221.04 236.40,222.89 238.58,224.18 C241.80,226.08 242.08,226.61 241.80,230.28 C241.19,238.45 232.26,240.61 228.43,233.51 C227.35,231.50 225.57,229.87 224.05,229.51 C222.65,229.18 215.73,227.05 208.67,224.78 C196.25,220.79 195.75,220.71 193.02,222.33 C189.29,224.53 186.81,224.44 183.98,221.99 C182.41,220.62 180.99,220.20 179.58,220.67 C178.44,221.06 169.88,223.48 160.57,226.05 C146.93,229.82 143.50,231.13 142.89,232.76 C142.48,233.87 141.11,235.51 139.85,236.39 ZM 126.57 178.92 C128.04,180.05 130.70,180.49 135.66,180.45 L 142.66 180.39 L 160.08 170.02 C169.66,164.31 178.51,159.04 179.75,158.30 C181.26,157.40 182.00,156.00 182.00,154.05 C182.00,151.95 182.84,150.54 185.00,149.00 L 188.00 146.86 L 188.00 100.15 L 185.56 98.22 C184.21,97.17 182.80,95.00 182.42,93.40 C181.51,89.59 180.36,88.25 176.07,85.93 C174.11,84.88 170.84,83.00 168.82,81.76 C157.32,74.71 144.23,67.03 142.80,66.48 C141.90,66.13 140.16,66.38 138.93,67.04 C137.21,67.96 135.88,67.95 133.04,67.01 C129.56,65.86 129.07,66.00 123.35,69.65 C120.04,71.77 111.20,77.10 103.70,81.50 C92.80,87.90 90.07,89.94 90.04,91.72 C90.02,92.93 88.65,95.47 87.00,97.35 L 84.00 100.76 L 84.00 148.04 L 86.45 149.16 C88.00,149.87 89.37,151.76 90.20,154.36 C90.91,156.62 92.40,158.92 93.50,159.48 C95.22,160.36 103.83,165.31 109.18,168.50 C110.10,169.05 113.92,171.26 117.68,173.41 C121.43,175.56 125.43,178.04 126.57,178.92 ZM 140.18 154.12 C137.02,158.04 133.21,158.02 131.72,154.08 C130.17,149.97 123.46,148.00 119.62,150.51 C116.73,152.40 113.11,151.97 110.57,149.43 C108.59,147.44 108.54,141.11 110.48,138.33 C112.53,135.40 110.73,130.43 106.89,128.44 C105.30,127.62 103.97,126.62 103.92,126.22 C103.88,125.83 103.70,124.71 103.51,123.74 C103.13,121.76 105.44,119.00 107.46,119.00 C108.19,119.00 109.51,117.17 110.41,114.94 C111.86,111.30 111.87,110.66 110.52,108.72 C108.70,106.13 108.52,99.88 110.20,98.20 C111.67,96.73 118.43,96.62 121.04,98.02 C123.63,99.41 129.05,97.09 131.32,93.64 C133.67,90.06 138.57,89.95 140.16,93.45 C141.77,96.98 147.54,99.53 150.67,98.10 C159.15,94.24 166.37,100.75 161.43,107.80 C159.32,110.82 161.06,116.19 165.07,119.05 C168.94,121.81 168.80,124.80 164.62,128.75 C160.49,132.64 159.28,136.55 161.45,138.95 C164.00,141.77 163.44,147.51 160.37,149.93 C157.10,152.50 155.31,152.52 151.57,150.06 C148.86,148.27 148.42,148.24 145.57,149.68 C143.88,150.53 141.45,152.53 140.18,154.12 ZM 191.00 122.96 C191.00,136.22 191.40,147.00 191.88,147.00 C192.72,147.00 195.60,143.85 204.96,132.69 C208.46,128.52 209.00,127.23 209.00,123.03 C209.00,118.93 208.44,117.52 205.38,113.84 C203.39,111.46 201.48,109.28 201.13,109.00 C200.78,108.72 199.24,106.82 197.70,104.76 C196.17,102.71 194.04,100.55 192.96,99.98 C191.04,98.95 191.00,99.41 191.00,122.96 ZM 70.84 137.65 C75.05,142.71 78.95,146.74 79.50,146.59 C80.95,146.22 80.85,100.78 79.40,100.30 C78.79,100.10 74.92,104.11 70.79,109.22 C63.75,117.93 63.28,118.81 63.23,123.47 C63.18,128.23 63.50,128.84 70.84,137.65 ZM 100.44 187.71 C105.47,190.18 106.42,190.27 113.11,188.91 C116.08,188.30 120.07,187.61 122.00,187.36 C123.93,187.11 126.08,186.33 126.79,185.63 C127.84,184.59 125.84,183.02 116.02,177.17 C109.38,173.23 103.66,170.00 103.31,170.00 C102.95,170.00 101.95,169.38 101.08,168.62 C98.05,165.96 88.17,160.91 87.65,161.75 C87.36,162.22 88.19,165.05 89.49,168.05 C90.79,171.05 92.87,176.25 94.11,179.61 C96.06,184.86 96.95,186.00 100.44,187.71 ZM 158.86 188.92 C163.06,189.37 166.81,189.79 167.19,189.87 C167.57,189.94 168.19,189.51 168.56,188.90 C168.93,188.30 170.58,187.24 172.21,186.55 C174.73,185.49 175.84,183.66 179.58,174.40 C185.20,160.45 185.25,158.71 179.88,162.83 C178.57,163.84 169.95,169.10 160.72,174.51 C151.50,179.92 144.10,184.81 144.29,185.38 C144.75,186.76 149.62,187.94 158.86,188.92 ZM 87.70 85.37 C87.95,85.62 92.73,83.09 98.32,79.76 C103.92,76.43 112.32,71.48 117.00,68.76 C127.01,62.93 128.35,61.92 127.29,60.98 C126.86,60.58 121.43,59.47 115.23,58.49 C105.14,56.91 103.78,56.88 102.23,58.24 C101.28,59.08 99.60,60.04 98.50,60.37 C97.04,60.81 95.24,64.24 91.88,72.95 C89.34,79.54 87.46,85.13 87.70,85.37 ZM 38.36 149.72 C42.36,163.93 43.75,167.68 44.68,166.72 C45.34,166.05 46.12,163.70 46.42,161.50 C46.71,159.30 48.14,151.72 49.59,144.66 C52.18,131.97 52.19,131.77 50.36,128.37 C48.57,125.04 48.31,124.93 43.15,125.13 C37.92,125.35 35.91,126.39 34.12,129.83 C33.53,130.96 34.91,137.44 38.36,149.72 ZM 53.56 63.10 C53.81,63.50 55.70,63.24 57.76,62.52 C64.51,60.14 77.39,56.23 82.90,54.87 C87.07,53.85 88.72,52.86 90.11,50.58 L 91.91 47.62 L 88.54 43.07 C86.14,39.83 84.20,38.31 81.83,37.81 C78.61,37.13 78.09,37.51 65.80,49.74 C58.82,56.68 53.31,62.69 53.56,63.10 ZM 145.60 225.27 C145.89,225.55 148.46,225.13 151.31,224.32 C154.16,223.52 158.30,222.43 160.50,221.91 C162.70,221.38 165.62,220.51 167.00,219.96 C169.47,218.99 170.12,218.81 177.00,217.23 C181.95,216.09 183.80,212.16 181.34,208.00 C180.37,206.35 179.27,205.00 178.90,205.00 C178.53,205.00 178.00,204.10 177.71,203.00 C177.30,201.43 176.37,201.01 173.34,201.04 C169.81,201.08 168.51,202.05 157.29,212.92 C150.57,219.42 145.31,224.98 145.60,225.27 ZM 116.25 223.51 C119.89,225.09 125.00,225.46 125.00,224.14 C125.00,223.66 119.65,218.26 113.10,212.14 C102.78,202.48 100.76,201.00 97.85,201.03 C94.97,201.06 94.12,201.69 91.78,205.55 C89.79,208.82 89.21,210.82 89.64,212.94 C90.29,216.21 91.48,216.80 103.00,219.52 C107.12,220.50 111.06,221.73 111.75,222.27 C112.44,222.81 113.00,222.99 113.00,222.67 C113.00,222.35 114.46,222.73 116.25,223.51 ZM 191.71 194.82 C193.14,195.69 199.90,196.18 201.03,195.48 C201.50,195.19 201.16,193.28 200.27,191.23 C199.39,189.18 196.78,182.32 194.47,176.00 C191.70,168.40 189.72,164.39 188.64,164.18 C187.68,163.99 187.00,164.50 187.00,165.43 C187.00,166.30 185.18,171.38 182.96,176.72 C178.92,186.42 178.92,186.44 180.68,189.71 C182.37,192.85 187.86,195.82 189.78,194.64 C190.23,194.36 191.10,194.44 191.71,194.82 ZM 126.80 146.80 C132.81,149.49 143.31,148.69 147.25,145.23 C149.86,142.94 149.39,140.44 145.57,136.21 C142.30,132.59 141.87,132.42 136.09,132.49 C130.61,132.57 129.70,132.89 126.52,135.98 C121.56,140.78 121.66,144.50 126.80,146.80 ZM 126.48 111.42 C129.97,115.66 129.97,115.67 135.73,115.22 C140.66,114.85 142.03,114.27 145.18,111.26 C149.94,106.70 150.13,102.71 145.68,100.87 C141.48,99.13 131.23,99.09 126.75,100.79 C121.86,102.65 121.78,105.68 126.48,111.42 ZM 218.69 210.58 C224.02,216.31 228.76,221.00 229.21,221.00 C230.02,221.00 229.75,217.12 228.59,212.00 C226.05,200.83 222.67,188.34 221.97,187.62 C221.11,186.71 209.00,197.55 209.00,199.23 C209.00,199.74 213.36,204.85 218.69,210.58 ZM 148.14 133.64 C152.60,138.25 155.82,137.94 158.30,132.66 C159.61,129.86 159.86,128.09 159.23,126.18 C158.71,124.63 158.73,122.50 159.26,121.02 C160.59,117.37 157.78,111.23 154.39,110.38 C152.29,109.86 151.12,110.41 148.22,113.31 C144.81,116.72 144.65,117.20 144.72,123.55 C144.80,129.68 145.06,130.47 148.14,133.64 ZM 116.08 136.08 L 118.24 138.24 L 122.74 133.73 C127.00,129.47 127.25,128.92 127.25,123.67 C127.25,118.76 126.84,117.63 123.74,114.01 C120.74,110.50 119.83,110.00 117.54,110.58 C114.13,111.44 112.81,114.69 112.53,123.00 C112.28,130.36 112.99,132.99 116.08,136.08 ZM 223.59 157.75 C225.11,167.87 226.42,171.29 227.42,167.75 C227.82,166.31 234.64,144.20 236.29,139.00 C236.89,137.07 237.48,135.05 237.59,134.50 C237.70,133.95 237.95,133.05 238.14,132.50 C239.06,129.93 236.87,131.02 229.24,136.94 C223.66,141.26 221.12,143.86 221.44,144.92 C221.69,145.79 222.66,151.56 223.59,157.75 ZM 215.00 222.48 C223.11,224.99 225.00,225.34 225.00,224.37 C225.00,223.68 220.88,218.94 211.74,209.13 L 205.81 202.76 L 200.87 207.63 C192.90,215.48 193.11,215.70 215.00,222.48 ZM 33.05 116.29 C32.95,117.81 36.71,115.05 43.25,108.81 L 49.86 102.50 L 47.61 91.95 C46.37,86.14 44.98,80.78 44.52,80.04 C43.98,79.16 41.83,85.15 38.39,97.09 C35.48,107.22 33.08,115.85 33.05,116.29 ZM 64.96 162.83 C65.02,163.31 72.17,158.95 74.25,157.18 C77.41,154.49 76.40,150.40 70.98,143.88 C63.37,134.73 60.32,131.67 59.78,132.63 C59.50,133.11 60.55,140.02 62.11,148.00 C63.66,155.98 64.94,162.65 64.96,162.83 ZM 203.59 105.91 C207.76,110.92 211.54,114.79 211.97,114.52 C212.65,114.10 212.05,109.94 209.67,98.50 C209.44,97.40 208.93,94.25 208.53,91.50 C207.48,84.18 206.59,83.53 201.66,86.47 C193.78,91.18 194.11,94.55 203.59,105.91 ZM 120.00 55.84 C126.93,57.29 128.52,57.16 131.37,54.93 C133.63,53.15 134.00,52.09 134.00,47.49 C134.00,44.53 133.66,41.94 133.25,41.72 C131.85,40.97 105.91,51.22 106.29,52.37 C106.50,52.99 108.65,53.81 111.08,54.19 C113.51,54.58 117.53,55.32 120.00,55.84 ZM 74.50 185.34 L 75.00 185.50 C82.21,187.78 83.30,188.12 83.90,187.73 C84.03,187.65 84.13,187.54 84.26,187.41 C84.86,186.81 84.08,186.04 73.00,176.49 C72.77,176.29 72.55,176.10 72.34,175.92 C67.39,171.65 65.41,169.94 63.45,169.96 C62.06,169.97 60.67,170.86 58.23,172.33 C50.74,176.84 51.30,178.67 61.00,181.32 C64.03,182.15 70.10,183.96 74.50,185.34 ZM 72.69 83.36 C76.57,85.87 80.22,85.97 82.68,83.63 C83.83,82.53 89.41,69.26 91.05,63.75 C91.61,61.84 91.50,61.01 90.68,61.03 C89.13,61.07 69.59,77.97 69.19,79.62 C69.02,80.32 70.59,82.00 72.69,83.36 ZM 59.72 114.28 C60.16,115.07 68.78,106.04 70.38,103.11 C70.87,102.23 72.34,100.34 73.65,98.93 C77.07,95.24 75.99,90.68 70.91,87.32 C68.81,85.93 66.54,84.99 65.85,85.22 C64.61,85.63 58.88,112.76 59.72,114.28 ZM 48.73 170.74 C49.40,172.48 49.80,172.38 55.75,168.97 C58.91,167.16 61.00,165.27 60.99,164.23 C60.98,162.75 57.55,142.85 56.69,139.28 C56.11,136.88 55.09,136.80 54.61,139.13 C54.34,140.43 52.80,147.80 51.18,155.49 C49.57,163.18 48.46,170.05 48.73,170.74 ZM 54.94 108.92 C55.03,109.51 56.48,107.97 56.59,107.17 C56.63,106.80 56.93,105.82 57.24,105.00 C57.56,104.18 58.58,98.57 59.52,92.54 L 61.22 81.59 L 58.37 79.32 C54.54,76.26 50.10,74.49 49.04,75.61 C48.57,76.10 49.67,83.62 51.53,92.50 C53.37,101.30 54.90,108.69 54.94,108.92 ZM 79.75 176.95 C89.67,185.24 92.00,186.86 92.00,185.49 C92.00,185.20 90.43,181.07 88.50,176.29 C86.57,171.52 85.00,167.09 85.00,166.46 C85.00,164.94 82.05,162.40 79.31,161.57 C77.01,160.87 69.00,165.09 69.00,167.00 C69.00,167.53 73.84,172.01 79.75,176.95 ZM 138.00 199.67 C138.00,202.60 138.19,205.00 138.43,205.00 C138.77,205.00 149.34,201.16 165.00,195.35 C167.41,194.45 163.71,193.31 152.61,191.51 C142.73,189.91 142.72,189.91 140.36,192.13 C138.45,193.92 138.00,195.37 138.00,199.67 ZM 122.00 200.93 C127.22,203.09 131.95,204.74 132.50,204.60 C133.05,204.46 133.63,202.11 133.79,199.39 C134.05,195.18 133.71,194.08 131.58,192.07 L 129.07 189.71 L 120.78 191.36 C116.23,192.26 111.51,193.00 110.31,193.00 C108.19,193.00 106.30,194.63 107.28,195.61 C107.54,195.87 108.82,196.30 110.13,196.55 C111.43,196.80 116.78,198.78 122.00,200.93 ZM 119.00 211.90 C133.10,225.30 134.00,225.52 134.00,215.63 L 133.99 209.50 L 121.20 204.75 C114.16,202.14 107.98,200.00 107.45,200.01 C106.93,200.01 112.12,205.36 119.00,211.90 ZM 57.12 73.68 C59.53,75.43 62.19,76.90 63.03,76.93 C63.87,76.97 66.06,75.62 67.90,73.94 C69.74,72.26 74.43,68.32 78.31,65.19 C83.64,60.89 84.89,59.44 83.43,59.24 C80.78,58.89 52.78,68.26 52.76,69.50 C52.75,70.05 54.71,71.93 57.12,73.68 ZM 215.07 169.08 C218.74,172.23 219.73,172.65 220.84,171.57 C221.96,170.47 221.83,168.12 220.09,157.38 C216.18,133.30 216.07,133.22 212.81,152.49 L 210.64 165.28 ZM 138.64 223.31 C139.36,224.02 141.43,222.27 154.27,210.05 C159.09,205.46 162.81,201.48 162.54,201.21 C162.27,200.94 156.64,202.69 150.03,205.11 L 138.01 209.50 L 138.00 216.08 C138.00,219.70 138.29,222.96 138.64,223.31 ZM 65.00 195.50 C71.86,202.38 77.81,208.00 78.23,208.00 C79.26,208.00 79.20,206.62 78.13,205.45 C77.65,204.93 76.47,201.22 75.51,197.22 C74.09,191.26 73.29,189.68 71.13,188.58 C68.51,187.23 55.07,183.00 53.41,183.00 C52.92,183.00 58.14,188.62 65.00,195.50 ZM 202.43 186.39 C202.77,187.43 203.35,187.98 203.72,187.61 C204.53,186.80 204.71,185.66 205.57,175.84 L 206.24 168.19 L 202.02 165.13 C197.62,161.94 194.21,160.45 193.34,161.33 C192.91,161.75 197.67,174.99 200.95,182.50 C201.43,183.60 202.10,185.35 202.43,186.39 ZM 82.71 208.34 C83.60,209.78 90.99,200.95 91.00,198.44 C91.00,197.31 90.44,195.69 89.75,194.84 C88.46,193.24 76.99,189.63 77.01,190.82 C77.03,191.91 82.01,207.21 82.71,208.34 ZM 188.79 209.32 C189.73,209.57 190.74,209.82 191.03,209.88 C191.32,209.95 193.79,208.01 196.53,205.59 C196.78,205.36 197.03,205.14 197.26,204.94 C199.26,203.18 200.40,202.17 200.25,201.44 C200.02,200.39 197.07,199.92 190.05,198.59 C184.81,197.60 181.25,197.35 180.67,197.93 C179.51,199.09 186.34,208.67 188.79,209.32 ZM 208.50 182.89 C207.78,193.11 207.80,193.26 209.74,191.89 C217.33,186.55 219.45,177.84 214.25,173.37 C209.54,169.32 209.44,169.48 208.50,182.89 ZM 37.14 120.67 C37.78,121.44 40.27,122.00 43.00,122.00 C47.20,122.00 48.05,121.62 50.21,118.75 C52.24,116.06 52.52,114.95 51.82,112.30 C51.35,110.54 50.57,108.85 50.07,108.54 C49.58,108.24 46.22,110.55 42.61,113.67 C37.50,118.09 36.29,119.64 37.14,120.67 ZM 196.76 150.43 C198.03,151.70 208.23,148.02 209.68,145.77 C210.13,145.07 210.97,141.69 211.55,138.25 C212.70,131.41 211.60,129.92 208.68,134.37 C207.82,135.67 204.64,139.67 201.61,143.25 C198.57,146.82 196.39,150.06 196.76,150.43 ZM 220.64 138.30 C222.07,139.74 235.69,127.93 234.61,126.18 C234.21,125.53 231.65,125.00 228.85,125.00 C224.86,125.00 223.43,125.46 221.94,127.25 C220.12,129.43 219.24,136.91 220.64,138.30 ZM 158.84 34.32 C165.56,41.10 166.85,42.85 165.46,43.38 C164.20,43.86 161.17,41.50 153.91,34.36 C148.50,29.05 144.28,24.35 144.54,23.93 C145.51,22.36 150.74,26.16 158.84,34.32 ZM 200.71 159.42 C202.80,160.79 205.16,161.81 205.97,161.70 C207.71,161.44 209.63,153.23 208.26,151.86 C207.32,150.92 198.56,154.28 197.51,155.99 C197.19,156.50 198.63,158.05 200.71,159.42 ZM 214.73 64.53 C213.40,65.99 209.86,65.82 210.43,64.31 C210.82,63.30 210.51,63.19 209.23,63.86 C208.19,64.40 206.51,64.39 205.02,63.83 C203.01,63.07 202.82,62.72 204.02,61.96 C204.84,61.45 205.03,61.02 204.45,61.02 C203.87,61.01 202.86,61.54 202.20,62.20 C201.27,63.13 201.00,63.04 201.00,61.77 C201.00,60.52 201.75,60.24 204.25,60.56 C208.43,61.08 213.00,62.98 213.00,64.18 C213.00,64.70 213.56,64.79 214.25,64.40 C214.94,64.00 215.15,64.06 214.73,64.53 Z" fill="rgb(4,4,4)"/>
<path d="M 214.73 64.53 C215.15,64.06 214.94,64.00 214.25,64.40 C213.56,64.79 213.00,64.70 213.00,64.18 C213.00,62.98 208.43,61.08 204.25,60.56 C201.75,60.24 201.00,60.52 201.00,61.77 C201.00,62.03 201.01,62.24 201.04,62.40 C193.22,60.03 185.72,57.95 185.43,58.23 C185.17,58.50 189.62,62.61 195.50,67.56 C186.86,60.52 182.25,58.13 183.23,61.25 C183.44,61.94 188.18,66.31 193.75,70.97 C202.40,78.20 204.34,79.94 201.45,82.05 C204.40,79.88 202.24,78.04 192.45,69.96 C186.15,64.76 180.54,60.35 179.99,60.16 C179.36,59.95 179.41,60.90 180.12,62.66 C180.36,63.26 180.81,64.43 181.40,65.94 C179.05,60.60 175.95,57.39 176.06,60.74 C176.08,61.49 177.28,65.14 178.94,69.57 C176.20,62.78 174.78,60.39 173.47,60.15 C173.04,60.08 172.53,59.90 172.01,59.66 C172.34,59.73 172.60,59.69 172.76,59.52 C173.17,59.09 172.93,58.52 172.24,58.28 C171.55,58.03 171.24,57.42 171.55,56.91 C171.86,56.41 171.47,56.00 170.68,56.00 C169.89,56.00 168.74,55.39 168.12,54.64 C167.91,54.39 167.74,54.18 167.54,54.02 C166.55,53.24 164.70,53.56 153.21,55.51 L 152.70 55.59 L 142.90 57.25 L 141.48 55.92 C142.77,56.90 143.99,56.94 147.00,56.52 C153.15,55.65 164.33,52.93 165.26,52.07 C165.61,51.75 161.93,49.98 156.64,47.87 C161.00,49.40 162.02,49.38 162.32,48.60 C162.75,47.48 159.10,45.18 153.09,42.71 C154.23,43.10 155.47,43.51 157.00,44.01 C160.02,45.00 163.40,46.14 164.50,46.54 C165.60,46.94 160.75,41.45 153.73,34.35 C143.48,23.98 141.38,21.40 143.10,21.27 C144.28,21.18 145.82,21.64 146.51,22.30 C147.02,22.79 150.25,25.94 154.43,30.04 C148.86,24.88 145.32,22.67 144.54,23.93 C144.28,24.35 148.50,29.05 153.91,34.36 C161.17,41.50 164.20,43.86 165.46,43.38 C166.74,42.89 165.75,41.36 160.34,35.84 C173.40,48.60 175.06,48.80 180.04,40.59 C182.89,35.87 183.50,35.36 184.76,36.62 C186.01,37.87 185.81,38.66 183.17,42.71 C180.35,47.05 180.24,47.56 181.56,50.11 C182.63,52.18 184.38,53.26 188.74,54.54 C191.91,55.47 194.95,56.30 195.50,56.39 C196.05,56.48 196.95,56.81 197.50,57.12 C198.05,57.44 200.65,58.27 203.28,58.98 C205.90,59.69 208.29,60.66 208.58,61.14 C208.88,61.61 210.04,62.00 211.16,62.00 C213.83,62.00 220.70,65.27 219.13,65.79 C218.20,66.10 218.22,66.56 219.21,67.76 C220.34,69.13 220.25,69.19 218.50,68.24 C217.34,67.61 212.59,66.00 207.04,64.25 C207.87,64.29 208.65,64.16 209.23,63.86 C210.51,63.19 210.82,63.30 210.43,64.31 C209.86,65.82 213.40,65.99 214.73,64.53 ZM 237.21 96.17 C236.95,95.29 236.69,94.39 236.43,93.50 C233.84,84.70 231.60,77.35 231.44,77.16 C231.28,76.97 230.51,77.20 229.74,77.66 C228.82,78.20 229.03,80.34 231.24,88.49 C229.65,83.03 228.49,79.24 228.36,79.08 C227.46,78.04 226.60,80.83 223.83,94.15 C225.18,87.01 225.56,83.06 225.07,81.38 L 224.25 78.50 L 223.27 81.00 C222.73,82.38 221.24,89.12 219.97,96.00 C219.66,97.67 219.33,99.30 219.01,100.82 C219.26,99.53 219.52,98.09 219.81,96.50 C222.89,79.34 223.38,75.00 222.24,75.00 C220.42,75.00 211.84,80.25 211.28,81.70 C211.02,82.38 211.58,87.57 212.56,93.86 L 210.55 81.78 L 213.03 79.94 C218.15,76.13 219.23,74.83 218.17,73.77 C217.45,73.05 215.72,73.56 212.61,75.39 L 211.40 76.09 L 214.56 74.11 C219.41,71.07 221.14,70.42 221.73,71.40 C222.91,73.40 225.33,73.81 226.86,72.28 C228.45,70.69 227.79,64.10 225.93,62.96 C223.65,61.55 227.07,60.78 230.07,62.03 C233.35,63.39 234.60,66.53 233.55,70.77 C233.18,72.27 232.66,74.62 232.40,76.00 C232.20,77.01 234.61,86.67 237.21,96.17 ZM 137.78 27.01 C137.56,25.60 137.15,24.89 136.51,24.64 C134.87,24.01 134.21,25.90 133.77,32.47 C133.60,34.96 133.53,36.10 131.11,37.50 C132.02,36.93 132.59,36.35 132.95,35.67 C133.53,34.54 133.52,33.09 133.51,30.82 C133.50,30.42 133.50,30.00 133.50,29.54 C133.50,24.79 133.10,22.53 132.20,22.23 C131.50,22.00 124.23,28.50 117.84,34.65 C118.15,34.34 118.46,34.03 118.77,33.72 C126.90,25.56 129.71,22.12 129.08,21.11 C128.19,19.69 127.06,20.65 107.57,39.30 C102.61,44.04 100.04,45.82 98.57,45.54 C98.50,45.53 98.44,45.52 98.37,45.50 C101.07,45.19 104.53,42.23 114.14,32.96 C121.49,25.86 126.82,20.07 126.00,20.07 C125.42,20.08 121.20,21.12 115.53,22.64 C126.27,19.49 129.19,17.85 127.61,16.28 C127.17,15.84 112.86,19.38 99.98,23.01 L 100.00 23.00 C103.51,21.92 109.16,20.39 118.81,17.90 C125.40,16.19 127.47,15.21 128.80,13.12 C131.08,9.55 133.09,8.07 135.70,8.03 C138.16,8.00 143.40,12.63 141.94,13.54 C141.42,13.86 141.00,13.69 141.00,13.16 C141.00,11.49 134.79,9.80 133.56,11.13 C132.78,11.98 132.90,12.11 134.00,11.60 C134.82,11.22 134.49,11.66 133.25,12.58 C129.86,15.09 130.22,19.43 133.94,20.97 C135.56,21.64 137.47,21.86 138.19,21.45 C139.10,20.93 139.19,21.04 138.50,21.80 C138.09,22.25 137.82,24.37 137.78,27.01 ZM 220.39 62.83 C222.12,65.62 219.58,63.28 208.66,52.03 C200.80,43.95 197.23,39.57 197.63,38.53 C197.95,37.69 198.52,37.00 198.88,37.00 C199.25,37.00 204.23,41.72 209.95,47.50 C215.67,53.28 219.97,58.00 219.50,58.00 C219.03,58.00 219.73,59.15 221.05,60.56 C223.04,62.67 223.13,62.99 221.56,62.39 C220.25,61.88 219.89,62.02 220.39,62.83 ZM 179.49 25.20 C179.63,25.36 179.47,26.23 179.12,27.13 C178.57,28.57 176.79,28.27 163.71,24.55 C148.97,20.36 142.13,16.97 148.54,17.02 C151.09,17.05 178.76,24.35 179.49,25.20 ZM 172.48 53.57 C176.12,56.47 179.96,55.24 179.23,51.41 C178.97,50.08 178.48,48.97 178.13,48.94 C171.47,48.26 170.81,48.33 170.26,49.77 C169.88,50.75 170.71,52.15 172.48,53.57 ZM 203.60 63.18 C202.99,62.99 202.37,62.80 201.75,62.61 C201.88,62.51 202.03,62.37 202.20,62.20 C202.86,61.54 203.87,61.01 204.45,61.02 C205.03,61.02 204.84,61.45 204.02,61.96 C203.22,62.47 203.04,62.80 203.60,63.18 ZM 99.76 27.02 C90.64,29.65 90.46,30.16 89.78,32.78 L 90.62 29.52 ZM 138.05 44.29 C138.12,42.35 138.28,41.00 138.46,41.00 C138.72,41.00 141.31,41.94 144.21,43.09 C145.08,43.44 145.90,43.76 146.68,44.07 C142.67,42.56 139.71,41.44 139.25,41.26 C138.53,40.99 138.17,41.83 138.05,44.29 ZM 216.94 108.90 C216.78,109.34 216.64,109.64 216.53,109.76 C215.88,110.50 215.20,108.66 214.07,102.60 C215.20,108.54 216.00,110.66 216.94,108.90 ZM 169.01 77.29 C168.64,77.11 168.39,77.00 168.31,77.00 C168.06,77.00 165.98,75.73 163.68,74.17 C163.61,74.12 163.53,74.07 163.45,74.02 C165.33,75.15 166.87,76.07 167.50,76.43 C168.02,76.73 168.52,77.02 169.01,77.29 ZM 181.48 84.99 C180.48,84.20 177.43,82.25 174.52,80.48 C179.45,83.36 181.02,84.39 181.48,84.99 ZM 140.20 54.72 C138.36,52.91 138.00,51.51 138.00,46.83 C138.00,46.78 138.00,46.74 138.00,46.70 C138.01,51.20 138.46,52.84 140.20,54.72 ZM 95.90 45.09 C95.86,45.08 95.83,45.08 95.80,45.07 C95.41,45.03 93.71,42.98 92.01,40.52 L 91.98 40.47 C93.46,42.62 95.12,44.56 95.90,45.09 ZM 138.15 36.76 L 138.00 36.70 L 138.00 33.48 ZM 156.01 58.54 C164.77,57.20 167.19,56.87 168.68,57.55 C167.17,56.94 164.52,57.24 156.01,58.54 ZM 187.63 81.52 C188.53,83.32 189.26,84.24 190.11,84.74 C189.26,84.37 188.64,83.69 187.63,81.52 ZM 225.67 121.82 C226.46,121.92 227.42,121.96 228.63,121.97 C230.86,121.98 232.18,121.92 233.21,121.52 C232.20,121.92 230.91,122.00 228.79,122.00 C227.52,122.00 226.51,121.95 225.67,121.82 ZM 249.46 122.54 C249.19,120.38 248.00,118.34 245.86,117.12 C245.60,116.98 245.34,116.80 245.08,116.59 C245.41,116.80 245.76,117.02 246.13,117.25 C248.11,118.48 249.21,120.46 249.46,122.54 ZM 220.22 115.76 C220.34,117.34 220.83,118.25 221.63,119.36 C220.81,118.32 220.33,117.38 220.22,115.76 ZM 83.23 23.49 C81.09,23.44 78.72,23.99 77.39,25.09 C78.73,23.98 81.09,23.43 83.23,23.49 ZM 121.06 41.66 C120.31,41.94 119.52,42.24 118.69,42.55 C118.33,42.68 117.97,42.81 117.62,42.94 C118.04,42.78 118.49,42.62 118.95,42.45 C119.69,42.17 120.39,41.91 121.06,41.66 ZM 91.14 25.58 C90.85,25.66 90.56,25.72 90.27,25.74 C90.53,25.71 90.82,25.65 91.14,25.58 ZM 144.00 61.50 L 144.00 61.49 C144.00,61.31 144.38,61.09 145.07,60.84 C144.38,61.09 144.01,61.31 144.00,61.50 ZM 238.73 114.73 L 238.89 115.28 L 238.89 115.28 Z" fill="rgb(32,32,32)"/>
<path d="M 220.39 62.83 C219.89,62.02 220.25,61.88 221.56,62.39 C223.13,62.99 223.04,62.67 221.05,60.56 C219.73,59.15 219.03,58.00 219.50,58.00 C219.96,58.00 215.79,53.40 210.19,47.74 C217.93,55.45 223.88,60.62 225.21,60.80 C226.75,61.00 228.08,61.31 229.21,61.73 C226.47,60.93 223.87,61.68 225.93,62.96 C227.79,64.10 228.45,70.69 226.86,72.28 C225.33,73.81 222.91,73.40 221.73,71.40 C221.14,70.42 219.41,71.07 214.56,74.11 L 213.06 75.05 C215.81,73.07 218.64,70.65 218.79,69.88 C219.02,68.67 216.27,67.40 206.25,64.16 C206.52,64.21 206.78,64.24 207.04,64.25 C212.59,66.00 217.34,67.61 218.50,68.24 C220.25,69.19 220.34,69.13 219.21,67.76 C218.22,66.56 218.20,66.10 219.13,65.79 C220.12,65.46 217.72,64.02 215.16,63.02 C216.82,63.47 218.37,63.82 218.99,63.87 C219.80,63.94 214.63,58.15 207.50,51.00 C200.37,43.85 194.18,38.00 193.75,38.00 C192.85,38.00 193.48,40.84 196.42,49.96 C197.96,54.74 199.27,57.00 203.45,59.03 C203.39,59.01 203.33,59.00 203.28,58.98 C200.65,58.27 198.05,57.44 197.50,57.12 C196.95,56.81 196.05,56.48 195.50,56.39 C195.26,56.35 194.52,56.16 193.50,55.89 C194.43,55.64 193.94,52.77 191.80,45.48 C189.15,36.47 187.57,35.95 183.20,42.68 C185.81,38.65 186.01,37.87 184.76,36.62 C183.64,35.50 183.04,35.78 180.92,39.15 C182.58,36.24 182.77,34.91 182.20,32.70 C181.47,29.88 181.24,29.55 167.46,25.61 C177.15,28.31 178.63,28.42 179.12,27.13 C179.47,26.23 179.63,25.36 179.49,25.20 C179.26,24.93 176.44,24.05 172.58,22.95 C182.23,25.50 183.84,25.53 185.36,24.46 C190.22,21.06 196.00,23.97 196.00,29.82 C196.00,33.04 196.92,34.40 207.45,44.99 C202.85,40.42 199.20,37.00 198.88,37.00 C198.52,37.00 197.95,37.69 197.63,38.53 C197.23,39.57 200.80,43.95 208.66,52.03 C219.58,63.28 222.12,65.62 220.39,62.83 ZM 158.84 34.32 C157.25,32.72 155.78,31.30 154.43,30.04 C150.25,25.94 147.02,22.79 146.51,22.30 C145.82,21.64 144.28,21.18 143.10,21.27 C141.38,21.40 143.48,23.98 153.73,34.35 C158.06,38.73 161.56,42.49 163.35,44.64 C161.24,42.43 157.62,38.82 153.40,34.75 C146.43,28.01 140.23,22.50 139.62,22.50 C138.93,22.50 138.39,25.21 138.21,29.58 L 138.03 34.04 L 138.00 33.48 L 138.00 30.96 C138.00,29.26 137.93,27.97 137.78,27.01 C137.82,24.37 138.09,22.25 138.50,21.80 C139.19,21.04 139.10,20.93 138.19,21.45 C137.47,21.86 135.56,21.64 133.94,20.97 C130.22,19.43 129.86,15.09 133.25,12.58 C134.49,11.66 134.82,11.22 134.00,11.60 C132.90,12.11 132.78,11.98 133.56,11.13 C134.79,9.80 141.00,11.49 141.00,13.16 C141.00,13.69 141.42,13.86 141.94,13.54 C143.35,12.67 138.55,8.34 135.99,8.05 L 136.00 8.05 C139.19,8.03 140.74,9.03 142.83,12.49 C144.33,14.96 146.40,15.78 163.27,20.43 C156.42,18.64 149.73,17.03 148.54,17.02 C142.45,16.97 148.31,20.03 161.53,23.92 C152.06,21.24 144.43,19.23 144.28,19.38 C144.13,19.54 149.45,25.03 156.12,31.58 C159.08,34.50 161.91,37.28 164.19,39.54 C163.02,38.45 161.75,37.21 160.34,35.84 C159.87,35.36 159.37,34.86 158.84,34.32 ZM 172.48 53.57 C170.71,52.15 169.88,50.75 170.26,49.77 C170.81,48.33 171.47,48.26 178.13,48.94 C178.48,48.97 178.97,50.08 179.23,51.41 C179.96,55.24 176.12,56.47 172.48,53.57 ZM 211.86 62.06 C211.60,62.02 211.37,62.00 211.16,62.00 C210.04,62.00 208.88,61.61 208.58,61.14 C208.55,61.09 208.50,61.03 208.42,60.97 C209.46,61.32 210.60,61.68 211.86,62.06 ZM 176.73 45.07 C175.50,46.18 174.24,46.49 172.59,45.89 C172.93,45.93 173.27,45.96 173.60,45.96 C174.94,45.98 175.83,45.81 176.73,45.07 ZM 193.89 60.29 C196.09,60.92 198.55,61.64 201.04,62.40 C201.04,62.44 201.05,62.48 201.06,62.51 C198.47,61.70 196.01,60.93 193.89,60.29 ZM 201.64 62.69 C201.67,62.67 201.71,62.64 201.75,62.61 C202.37,62.80 202.99,62.99 203.60,63.18 C203.77,63.29 203.99,63.41 204.28,63.53 C203.40,63.25 202.51,62.97 201.64,62.69 ZM 233.67 66.03 C234.04,67.36 234.00,68.93 233.55,70.77 C234.00,68.97 234.03,67.38 233.67,66.03 ZM 208.35 77.88 L 208.08 78.04 L 207.71 77.73 C207.87,77.85 207.98,77.91 208.01,77.92 C208.10,77.93 208.21,77.92 208.35,77.88 ZM 138.15 36.76 L 138.15 36.76 L 141.96 38.33 C142.22,38.44 142.47,38.54 142.73,38.65 C142.47,38.54 142.23,38.44 142.00,38.35 ZM 131.30 9.94 C130.48,10.73 129.66,11.78 128.80,13.12 C129.66,11.77 130.48,10.72 131.30,9.94 ZM 153.52 42.86 C153.38,42.81 153.23,42.76 153.09,42.71 C152.99,42.67 152.89,42.62 152.79,42.58 C153.03,42.67 153.27,42.76 153.52,42.86 Z" fill="rgb(68,67,68)"/>
<path d="M 0.00 124.00 L 0.00 0.00 L 137.50 0.00 L 275.00 0.00 L 275.00 124.00 L 275.00 248.00 L 137.50 248.00 L 0.00 248.00 L 0.00 124.00 ZM 139.85 236.39 C141.11,235.51 142.48,233.87 142.89,232.76 C143.50,231.13 146.93,229.82 160.57,226.05 C169.88,223.48 178.44,221.06 179.58,220.67 C180.99,220.20 182.41,220.62 183.98,221.99 C186.81,224.44 189.29,224.53 193.02,222.33 C195.75,220.71 196.25,220.79 208.67,224.78 C215.73,227.05 222.65,229.18 224.05,229.51 C225.57,229.87 227.35,231.50 228.43,233.51 C232.26,240.61 241.19,238.45 241.80,230.28 C242.08,226.61 241.80,226.08 238.58,224.18 C236.40,222.89 234.81,221.04 234.40,219.30 C234.04,217.76 232.06,209.88 230.00,201.80 L 226.27 187.09 L 228.74 184.80 C230.93,182.75 231.15,181.91 230.67,177.21 C230.23,172.88 230.84,169.70 234.00,159.71 C236.12,152.99 238.95,143.98 240.28,139.67 C242.10,133.77 243.29,131.54 245.10,130.64 C250.49,127.95 251.07,120.33 246.13,117.25 C244.68,116.34 243.36,115.52 243.19,115.41 C242.04,114.68 232.00,78.03 232.40,76.00 C232.66,74.62 233.18,72.27 233.55,70.77 C234.99,64.95 232.28,61.71 225.21,60.80 C223.83,60.62 217.55,55.12 209.46,47.01 C197.03,34.55 196.00,33.24 196.00,29.82 C196.00,23.97 190.22,21.06 185.36,24.46 C183.47,25.79 181.44,25.42 163.89,20.60 C146.45,15.80 144.35,14.99 142.83,12.49 C140.74,9.03 139.19,8.03 136.00,8.05 C133.10,8.07 131.15,9.44 128.80,13.12 C127.47,15.21 125.40,16.19 118.81,17.90 C109.16,20.39 103.51,21.92 100.00,23.00 C88.90,26.41 89.08,26.39 87.22,24.70 C85.25,22.92 79.75,23.14 77.39,25.09 C76.63,25.72 76.00,27.51 76.00,29.06 C76.00,32.30 72.65,36.49 57.80,51.75 C49.08,60.72 47.41,62.00 44.48,62.00 C42.65,62.00 40.40,62.75 39.48,63.66 C37.85,65.30 37.84,66.44 39.37,77.00 C39.57,78.38 39.36,80.22 38.91,81.11 C38.15,82.57 35.79,90.80 31.16,108.00 C29.75,113.26 28.81,114.88 26.26,116.50 C24.52,117.60 22.70,119.62 22.21,121.00 C20.88,124.71 23.22,129.53 26.96,130.84 C28.97,131.54 30.00,132.57 30.00,133.89 C30.00,134.98 31.08,139.39 32.40,143.69 C40.52,170.16 40.31,169.26 39.13,172.53 C36.39,180.09 39.00,185.40 45.48,185.47 C48.38,185.50 50.65,187.25 62.81,198.82 C76.66,212.01 76.79,212.17 76.29,215.91 C75.85,219.14 76.17,219.99 78.52,221.84 C81.74,224.37 83.88,224.56 86.56,222.53 C87.63,221.72 89.40,221.04 90.50,221.01 C93.34,220.93 127.43,230.30 127.85,231.27 C128.04,231.71 129.31,233.41 130.68,235.04 C133.47,238.35 136.43,238.79 139.85,236.39 ZM 145.60 225.27 C145.31,224.98 150.57,219.42 157.29,212.92 C168.51,202.05 169.81,201.08 173.34,201.04 C176.37,201.01 177.30,201.43 177.71,203.00 C178.00,204.10 178.53,205.00 178.90,205.00 C179.27,205.00 180.37,206.35 181.34,208.00 C183.80,212.16 181.95,216.09 177.00,217.23 C170.12,218.81 169.47,218.99 167.00,219.96 C165.62,220.51 162.70,221.38 160.50,221.91 C158.30,222.43 154.16,223.52 151.31,224.32 C148.46,225.13 145.89,225.55 145.60,225.27 ZM 116.25 223.51 C114.46,222.73 113.00,222.35 113.00,222.67 C113.00,222.99 112.44,222.81 111.75,222.27 C111.06,221.73 107.12,220.50 103.00,219.52 C91.48,216.80 90.29,216.21 89.64,212.94 C89.21,210.82 89.79,208.82 91.78,205.55 C94.12,201.69 94.97,201.06 97.85,201.03 C100.76,201.00 102.78,202.48 113.10,212.14 C119.65,218.26 125.00,223.66 125.00,224.14 C125.00,225.46 119.89,225.09 116.25,223.51 ZM 215.00 222.48 C193.11,215.70 192.90,215.48 200.87,207.63 L 205.81 202.76 L 211.74 209.13 C220.88,218.94 225.00,223.68 225.00,224.37 C225.00,225.34 223.11,224.99 215.00,222.48 ZM 119.00 211.90 C112.12,205.36 106.93,200.01 107.45,200.01 C107.98,200.00 114.16,202.14 121.20,204.75 L 133.99 209.50 L 134.00 215.63 C134.00,225.52 133.10,225.30 119.00,211.90 ZM 138.64 223.31 C138.29,222.96 138.00,219.70 138.00,216.08 L 138.01 209.50 L 150.03 205.11 C156.64,202.69 162.27,200.94 162.54,201.21 C162.81,201.48 159.09,205.46 154.27,210.05 C141.43,222.27 139.36,224.02 138.64,223.31 ZM 218.69 210.58 C213.36,204.85 209.00,199.74 209.00,199.23 C209.00,197.55 221.11,186.71 221.97,187.62 C222.67,188.34 226.05,200.83 228.59,212.00 C229.75,217.12 230.02,221.00 229.21,221.00 C228.76,221.00 224.02,216.31 218.69,210.58 ZM 188.79 209.32 C186.34,208.67 179.51,199.09 180.67,197.93 C181.25,197.35 184.81,197.60 190.05,198.59 C202.48,200.94 202.16,200.59 196.53,205.59 C193.79,208.01 191.32,209.95 191.03,209.88 C190.74,209.82 189.73,209.57 188.79,209.32 ZM 82.71 208.34 C82.01,207.21 77.03,191.91 77.01,190.82 C76.99,189.63 88.46,193.24 89.75,194.84 C90.44,195.69 91.00,197.31 91.00,198.44 C90.99,200.95 83.60,209.78 82.71,208.34 ZM 65.00 195.50 C58.14,188.62 52.92,183.00 53.41,183.00 C55.07,183.00 68.51,187.23 71.13,188.58 C73.29,189.68 74.09,191.26 75.51,197.22 C76.47,201.22 77.65,204.93 78.13,205.45 C79.20,206.62 79.26,208.00 78.23,208.00 C77.81,208.00 71.86,202.38 65.00,195.50 ZM 122.00 200.93 C116.78,198.78 111.43,196.80 110.13,196.55 C108.82,196.30 107.54,195.87 107.28,195.61 C106.30,194.63 108.19,193.00 110.31,193.00 C111.51,193.00 116.23,192.26 120.78,191.36 L 129.07 189.71 L 131.58 192.07 C133.71,194.08 134.05,195.18 133.79,199.39 C133.63,202.11 133.05,204.46 132.50,204.60 C131.95,204.74 127.22,203.09 122.00,200.93 ZM 138.00 199.67 C138.00,195.37 138.45,193.92 140.36,192.13 C142.72,189.91 142.73,189.91 152.61,191.51 C163.71,193.31 167.41,194.45 165.00,195.35 C149.34,201.16 138.77,205.00 138.43,205.00 C138.19,205.00 138.00,202.60 138.00,199.67 ZM 191.71 194.82 C191.10,194.44 190.23,194.36 189.78,194.64 C187.86,195.82 182.37,192.85 180.68,189.71 C178.92,186.44 178.92,186.42 182.96,176.72 C185.18,171.38 187.00,166.30 187.00,165.43 C187.00,164.50 187.68,163.99 188.64,164.18 C189.72,164.39 191.70,168.40 194.47,176.00 C196.78,182.32 199.39,189.18 200.27,191.23 C201.16,193.28 201.50,195.19 201.03,195.48 C199.90,196.18 193.14,195.69 191.71,194.82 ZM 208.50 182.89 C209.44,169.48 209.54,169.32 214.25,173.37 C219.45,177.84 217.33,186.55 209.74,191.89 C207.80,193.26 207.78,193.11 208.50,182.89 ZM 100.44 187.71 C96.95,186.00 96.06,184.86 94.11,179.61 C92.87,176.25 90.79,171.05 89.49,168.05 C88.19,165.05 87.36,162.22 87.65,161.75 C88.17,160.91 98.05,165.96 101.08,168.62 C101.95,169.38 102.95,170.00 103.31,170.00 C103.66,170.00 109.38,173.23 116.02,177.17 C125.84,183.02 127.84,184.59 126.79,185.63 C126.08,186.33 123.93,187.11 122.00,187.36 C120.07,187.61 116.08,188.30 113.11,188.91 C106.42,190.27 105.47,190.18 100.44,187.71 ZM 158.86 188.92 C149.62,187.94 144.75,186.76 144.29,185.38 C144.10,184.81 151.50,179.92 160.72,174.51 C169.95,169.10 178.57,163.84 179.88,162.83 C185.25,158.71 185.20,160.45 179.58,174.40 C175.84,183.66 174.73,185.49 172.21,186.55 C170.58,187.24 168.93,188.30 168.56,188.90 C168.19,189.51 167.57,189.94 167.19,189.87 C166.81,189.79 163.06,189.37 158.86,188.92 ZM 74.50 185.34 C70.10,183.96 64.03,182.15 61.00,181.32 C51.30,178.67 50.74,176.84 58.23,172.33 C64.24,168.71 63.86,168.60 73.00,176.49 C84.08,186.04 84.86,186.81 84.26,187.41 C83.47,188.19 83.66,188.23 74.50,185.34 ZM 202.43 186.39 C202.10,185.35 201.43,183.60 200.95,182.50 C197.67,174.99 192.91,161.75 193.34,161.33 C194.21,160.45 197.62,161.94 202.02,165.13 L 206.24 168.19 L 205.57 175.84 C204.71,185.66 204.53,186.80 203.72,187.61 C203.35,187.98 202.77,187.43 202.43,186.39 ZM 79.75 176.95 C73.84,172.01 69.00,167.53 69.00,167.00 C69.00,165.09 77.01,160.87 79.31,161.57 C82.05,162.40 85.00,164.94 85.00,166.46 C85.00,167.09 86.57,171.52 88.50,176.29 C90.43,181.07 92.00,185.20 92.00,185.49 C92.00,186.86 89.67,185.24 79.75,176.95 ZM 126.57 178.92 C125.43,178.04 121.43,175.56 117.68,173.41 C113.92,171.26 110.10,169.05 109.18,168.50 C103.83,165.31 95.22,160.36 93.50,159.48 C92.40,158.92 90.91,156.62 90.20,154.36 C89.37,151.76 88.00,149.87 86.45,149.16 L 84.00 148.04 L 84.00 124.40 L 84.00 100.76 L 87.00 97.35 C88.65,95.47 90.02,92.93 90.04,91.72 C90.07,89.94 92.80,87.90 103.70,81.50 C111.20,77.10 120.04,71.77 123.35,69.65 C129.07,66.00 129.56,65.86 133.04,67.01 C135.88,67.95 137.21,67.96 138.93,67.04 C140.16,66.38 141.90,66.13 142.80,66.48 C144.23,67.03 157.32,74.71 168.82,81.76 C170.84,83.00 174.11,84.88 176.07,85.93 C180.36,88.25 181.51,89.59 182.42,93.40 C182.80,95.00 184.21,97.17 185.56,98.22 L 188.00 100.15 L 188.00 123.50 L 188.00 146.86 L 185.00 149.00 C182.84,150.54 182.00,151.95 182.00,154.05 C182.00,156.00 181.26,157.40 179.75,158.30 C178.51,159.04 169.66,164.31 160.08,170.02 L 142.66 180.39 L 135.66 180.45 C130.70,180.49 128.04,180.05 126.57,178.92 ZM 140.18 154.12 C141.45,152.53 143.88,150.53 145.57,149.68 C148.42,148.24 148.86,148.27 151.57,150.06 C155.31,152.52 157.10,152.50 160.37,149.93 C163.44,147.51 164.00,141.77 161.45,138.95 C159.28,136.55 160.49,132.64 164.62,128.75 C168.80,124.80 168.94,121.81 165.07,119.05 C161.06,116.19 159.32,110.82 161.43,107.80 C166.37,100.75 159.15,94.24 150.67,98.10 C147.54,99.53 141.77,96.98 140.16,93.45 C138.57,89.95 133.67,90.06 131.32,93.64 C129.05,97.09 123.63,99.41 121.04,98.02 C118.43,96.62 111.67,96.73 110.20,98.20 C108.52,99.88 108.70,106.13 110.52,108.72 C111.87,110.66 111.86,111.30 110.41,114.94 C109.51,117.17 108.19,119.00 107.46,119.00 C105.44,119.00 103.13,121.76 103.51,123.74 C103.70,124.71 103.88,125.83 103.92,126.22 C103.97,126.62 105.30,127.62 106.89,128.44 C110.73,130.43 112.53,135.40 110.48,138.33 C108.54,141.11 108.59,147.44 110.57,149.43 C113.11,151.97 116.73,152.40 119.62,150.51 C123.46,148.00 130.17,149.97 131.72,154.08 C133.21,158.02 137.02,158.04 140.18,154.12 ZM 215.07 169.08 L 210.64 165.28 L 212.81 152.49 C216.07,133.22 216.18,133.30 220.09,157.38 C221.83,168.12 221.96,170.47 220.84,171.57 C219.73,172.65 218.74,172.23 215.07,169.08 ZM 48.73 170.74 C48.46,170.05 49.57,163.18 51.18,155.49 C52.80,147.80 54.34,140.43 54.61,139.13 C55.09,136.80 56.11,136.88 56.69,139.28 C57.55,142.85 60.98,162.75 60.99,164.23 C61.00,165.27 58.91,167.16 55.75,168.97 C49.80,172.38 49.40,172.48 48.73,170.74 ZM 223.59 157.75 C222.66,151.56 221.69,145.79 221.44,144.92 C221.12,143.86 223.66,141.26 229.24,136.94 C236.87,131.02 239.06,129.93 238.14,132.50 C237.95,133.05 237.70,133.95 237.59,134.50 C237.48,135.05 236.89,137.07 236.29,139.00 C234.64,144.20 227.82,166.31 227.42,167.75 C226.42,171.29 225.11,167.87 223.59,157.75 ZM 38.36 149.72 C34.91,137.44 33.53,130.96 34.12,129.83 C35.91,126.39 37.92,125.35 43.15,125.13 C48.31,124.93 48.57,125.04 50.36,128.37 C52.19,131.77 52.18,131.97 49.59,144.66 C48.14,151.72 46.71,159.30 46.42,161.50 C46.12,163.70 45.34,166.05 44.68,166.72 C43.75,167.68 42.36,163.93 38.36,149.72 ZM 64.96 162.83 C64.94,162.65 63.66,155.98 62.11,148.00 C60.55,140.02 59.50,133.11 59.78,132.63 C60.32,131.67 63.37,134.73 70.98,143.88 C76.40,150.40 77.41,154.49 74.25,157.18 C72.17,158.95 65.02,163.31 64.96,162.83 ZM 200.71 159.42 C198.63,158.05 197.19,156.50 197.51,155.99 C198.56,154.28 207.32,150.92 208.26,151.86 C209.63,153.23 207.71,161.44 205.97,161.70 C205.16,161.81 202.80,160.79 200.71,159.42 ZM 196.76 150.43 C196.39,150.06 198.57,146.82 201.61,143.25 C204.64,139.67 207.82,135.67 208.68,134.37 C211.60,129.92 212.70,131.41 211.55,138.25 C210.97,141.69 210.13,145.07 209.68,145.77 C208.23,148.02 198.03,151.70 196.76,150.43 ZM 70.84 137.65 C63.50,128.84 63.18,128.23 63.23,123.47 C63.28,118.81 63.75,117.93 70.79,109.22 C74.92,104.11 78.79,100.10 79.40,100.30 C80.85,100.78 80.95,146.22 79.50,146.59 C78.95,146.74 75.05,142.71 70.84,137.65 ZM 191.00 122.96 C191.00,99.41 191.04,98.95 192.96,99.98 C194.04,100.55 196.17,102.71 197.70,104.76 C199.24,106.82 200.78,108.72 201.13,109.00 C201.48,109.28 203.39,111.46 205.38,113.84 C208.44,117.52 209.00,118.93 209.00,123.03 C209.00,127.23 208.46,128.52 204.96,132.69 C195.60,143.85 192.72,147.00 191.88,147.00 C191.40,147.00 191.00,136.22 191.00,122.96 ZM 220.64 138.30 C219.24,136.91 220.12,129.43 221.94,127.25 C223.43,125.46 224.86,125.00 228.85,125.00 C231.65,125.00 234.21,125.53 234.61,126.18 C235.69,127.93 222.07,139.74 220.64,138.30 ZM 37.14 120.67 C36.29,119.64 37.50,118.09 42.61,113.67 C46.22,110.55 49.58,108.24 50.07,108.54 C50.57,108.85 51.35,110.54 51.82,112.30 C52.52,114.95 52.24,116.06 50.21,118.75 C48.05,121.62 47.20,122.00 43.00,122.00 C40.27,122.00 37.78,121.44 37.14,120.67 ZM 221.75 119.53 C219.42,116.33 219.50,115.14 223.40,96.20 C226.51,81.11 227.41,77.99 228.36,79.08 C228.56,79.31 231.01,87.55 233.80,97.39 L 238.89 115.28 L 236.32 118.64 C234.00,121.69 233.30,122.00 228.63,121.97 C224.38,121.94 223.20,121.52 221.75,119.53 ZM 33.05 116.29 C33.08,115.85 35.48,107.22 38.39,97.09 C41.83,85.15 43.98,79.16 44.52,80.04 C44.98,80.78 46.37,86.14 47.61,91.95 L 49.86 102.50 L 43.25 108.81 C36.71,115.05 32.95,117.81 33.05,116.29 ZM 59.72 114.28 C58.88,112.76 64.61,85.63 65.85,85.22 C66.54,84.99 68.81,85.93 70.91,87.32 C75.99,90.68 77.07,95.24 73.65,98.93 C72.34,100.34 70.87,102.23 70.38,103.11 C68.78,106.04 60.16,115.07 59.72,114.28 ZM 203.59 105.91 C194.11,94.55 193.78,91.18 201.66,86.47 C206.59,83.53 207.48,84.18 208.53,91.50 C208.93,94.25 209.44,97.40 209.67,98.50 C212.05,109.94 212.65,114.10 211.97,114.52 C211.54,114.79 207.76,110.92 203.59,105.91 ZM 213.08 97.07 C211.79,89.41 210.98,82.50 211.28,81.70 C211.84,80.25 220.42,75.00 222.24,75.00 C223.38,75.00 222.89,79.34 219.81,96.50 C216.72,113.70 215.90,113.77 213.08,97.07 ZM 54.94 108.92 C54.90,108.69 53.37,101.30 51.53,92.50 C49.67,83.62 48.57,76.10 49.04,75.61 C50.10,74.49 54.54,76.26 58.37,79.32 L 61.22 81.59 L 59.52 92.54 C58.58,98.57 57.56,104.18 57.24,105.00 C56.93,105.82 56.63,106.80 56.59,107.17 C56.48,107.97 55.03,109.51 54.94,108.92 ZM 72.69 83.36 C70.59,82.00 69.02,80.32 69.19,79.62 C69.59,77.97 89.13,61.07 90.68,61.03 C91.50,61.01 91.61,61.84 91.05,63.75 C89.41,69.26 83.83,82.53 82.68,83.63 C80.22,85.97 76.57,85.87 72.69,83.36 ZM 87.70 85.37 C87.46,85.13 89.34,79.54 91.88,72.95 C95.24,64.24 97.04,60.81 98.50,60.37 C99.60,60.04 101.28,59.08 102.23,58.24 C103.78,56.88 105.14,56.91 115.23,58.49 C121.43,59.47 126.86,60.58 127.29,60.98 C128.35,61.92 127.01,62.93 117.00,68.76 C112.32,71.48 103.92,76.43 98.32,79.76 C92.73,83.09 87.95,85.62 87.70,85.37 ZM 181.56 85.10 C181.08,84.31 178.62,82.80 167.50,76.43 C166.40,75.80 162.57,73.50 159.00,71.31 C155.43,69.13 150.59,66.29 148.25,64.99 C145.91,63.69 144.00,62.12 144.00,61.50 C144.00,60.83 148.85,59.63 156.01,58.54 C166.85,56.88 168.18,56.85 169.76,58.25 C170.72,59.10 172.38,59.96 173.47,60.15 C174.95,60.43 176.57,63.45 180.10,72.51 C182.67,79.10 184.57,84.84 184.33,85.25 C183.72,86.28 182.24,86.19 181.56,85.10 ZM 191.00 85.11 C188.95,84.54 187.85,82.71 184.88,74.96 C182.88,69.76 180.74,64.22 180.12,62.66 C179.41,60.90 179.36,59.95 179.99,60.16 C180.54,60.35 186.15,64.76 192.45,69.96 C204.97,80.29 205.02,80.42 197.86,84.07 C195.78,85.13 193.95,85.96 193.79,85.90 C193.63,85.85 192.38,85.49 191.00,85.11 ZM 197.28 69.17 C184.00,57.90 183.68,57.55 187.50,58.44 C189.15,58.82 196.93,61.19 204.80,63.70 C216.00,67.28 219.03,68.61 218.79,69.88 C218.51,71.29 209.35,78.13 208.01,77.92 C207.73,77.87 202.90,73.93 197.28,69.17 ZM 57.12 73.68 C54.71,71.93 52.75,70.05 52.76,69.50 C52.78,68.26 80.78,58.89 83.43,59.24 C84.89,59.44 83.64,60.89 78.31,65.19 C74.43,68.32 69.74,72.26 67.90,73.94 C66.06,75.62 63.87,76.97 63.03,76.93 C62.19,76.90 59.53,75.43 57.12,73.68 ZM 53.56 63.10 C53.31,62.69 58.82,56.68 65.80,49.74 C78.09,37.51 78.61,37.13 81.83,37.81 C84.20,38.31 86.14,39.83 88.54,43.07 L 91.91 47.62 L 90.11 50.58 C88.72,52.86 87.07,53.85 82.90,54.87 C77.39,56.23 64.51,60.14 57.76,62.52 C55.70,63.24 53.81,63.50 53.56,63.10 ZM 213.50 62.55 C200.64,58.73 198.81,57.38 196.42,49.96 C193.48,40.84 192.85,38.00 193.75,38.00 C194.18,38.00 200.37,43.85 207.50,51.00 C214.63,58.15 219.80,63.94 218.99,63.87 C218.17,63.80 215.70,63.20 213.50,62.55 ZM 120.00 55.84 C117.53,55.32 113.51,54.58 111.08,54.19 C108.65,53.81 106.50,52.99 106.29,52.37 C105.91,51.22 131.85,40.97 133.25,41.72 C133.66,41.94 134.00,44.53 134.00,47.49 C134.00,52.09 133.63,53.15 131.37,54.93 C128.52,57.16 126.93,57.29 120.00,55.84 ZM 140.25 54.76 C138.45,52.85 138.00,51.21 138.00,46.58 C138.00,42.36 138.34,40.91 139.25,41.26 C139.94,41.52 146.24,43.90 153.26,46.55 C160.28,49.20 165.68,51.69 165.26,52.07 C164.33,52.93 153.15,55.65 147.00,56.52 C143.09,57.07 142.20,56.84 140.25,54.76 ZM 187.74 54.34 C184.39,53.31 182.57,52.07 181.57,50.13 C180.24,47.56 180.35,47.05 183.19,42.69 C187.57,35.95 189.15,36.46 191.80,45.48 C194.11,53.34 194.49,56.07 193.25,55.90 C192.84,55.84 190.36,55.14 187.74,54.34 ZM 159.00 44.84 C152.45,42.51 147.45,40.60 141.96,38.33 L 137.92 36.66 L 138.21 29.58 C138.39,25.21 138.93,22.50 139.62,22.50 C140.23,22.50 146.43,28.01 153.40,34.75 C160.37,41.49 165.72,46.96 165.29,46.90 C164.85,46.85 162.02,45.92 159.00,44.84 ZM 96.13 45.21 C95.50,45.00 93.62,42.85 91.95,40.43 C89.39,36.71 89.06,35.55 89.77,32.79 C90.61,29.56 90.67,29.53 107.56,24.82 C116.88,22.22 125.18,20.08 126.00,20.07 C126.82,20.07 121.49,25.86 114.14,32.96 C101.80,44.87 99.60,46.37 96.13,45.21 ZM 108.00 45.19 C108.00,43.58 130.94,21.81 132.20,22.23 C133.10,22.53 133.50,24.79 133.50,29.54 C133.50,37.51 134.43,36.69 118.95,42.45 C108.72,46.25 108.00,46.43 108.00,45.19 ZM 169.37 44.71 C168.75,44.05 162.79,38.14 156.12,31.58 C149.45,25.03 144.13,19.54 144.28,19.38 C144.44,19.23 152.85,21.45 162.98,24.33 C181.20,29.51 181.40,29.60 182.20,32.70 C182.88,35.31 182.48,36.70 179.86,40.92 C177.15,45.28 176.26,45.99 173.60,45.96 C171.90,45.94 169.99,45.38 169.37,44.71 ZM 126.80 146.80 C121.66,144.50 121.56,140.78 126.52,135.98 C129.70,132.89 130.61,132.57 136.09,132.49 C141.87,132.42 142.30,132.59 145.57,136.21 C149.39,140.44 149.86,142.94 147.25,145.23 C143.31,148.69 132.81,149.49 126.80,146.80 ZM 116.08 136.08 C112.99,132.99 112.28,130.36 112.53,123.00 C112.81,114.69 114.13,111.44 117.54,110.58 C119.83,110.00 120.74,110.50 123.74,114.01 C126.84,117.63 127.25,118.76 127.25,123.67 C127.25,128.92 127.00,129.47 122.74,133.73 L 118.24 138.24 L 116.08 136.08 ZM 148.14 133.64 C145.06,130.47 144.80,129.68 144.72,123.55 C144.65,117.20 144.81,116.72 148.22,113.31 C151.12,110.41 152.29,109.86 154.39,110.38 C157.78,111.23 160.59,117.37 159.26,121.02 C158.73,122.50 158.71,124.63 159.23,126.18 C159.86,128.09 159.61,129.86 158.30,132.66 C155.82,137.94 152.60,138.25 148.14,133.64 ZM 126.48 111.42 C121.78,105.68 121.86,102.65 126.75,100.79 C131.23,99.09 141.48,99.13 145.68,100.87 C150.13,102.71 149.94,106.70 145.18,111.26 C142.03,114.27 140.66,114.85 135.73,115.22 C129.97,115.67 129.97,115.66 126.48,111.42 Z" fill="rgb(253,253,253)"/>
</g>
</svg>